<svg xmlns="http://www.w3.org/2000/svg" xmlns:xlink="http://www.w3.org/1999/xlink" width="96" height="96" viewBox="0 0 96 96">
  <defs>
    <polygon id="dashboard-a" points=".02 95.495 94.02 95.495 94.02 .495 .02 .495"/>
  </defs>
  <g fill="none" fill-rule="evenodd" transform="translate(.98 -.495)">
    <path fill="#ссс" d="M30.6765874,70.494898 L62.5350463,70.494898 L70.8700061,70.494898 C73.1525809,70.494898 75.0204082,68.6400013 75.0204082,66.371074 L75.0204082,33.494898 L68.8167623,33.494898 L68.1892738,33.9002021 L68.1892738,57.6444302 C68.1892738,59.9133576 66.3214465,61.7682542 64.0388717,61.7682542 L55.7039119,61.7682542 L25.0204082,61.7682542 L25.0204082,70.494898 L30.6765874,70.494898 Z"/>
    <path stroke="#00E8D4" stroke-linecap="round" stroke-width="2.279" d="M25.0204082,62.9177008 L25.0204082,90.3492764 C25.0204082,92.629222 26.8885561,94.494898 29.1715227,94.494898 L48.668975,94.494898 L80.533879,94.494898 L88.8692936,94.494898 C91.1522602,94.494898 93.0204082,92.629222 93.0204082,90.3492764 L93.0204082,37.6405196 C93.0204082,35.3605739 91.1522602,33.494898 88.8692936,33.494898 L69.8242808,33.494898"/>
    <path stroke="#00E8D4" stroke-linecap="round" stroke-width="2.279" d="M24.668975,62.494898 L5.17152272,62.494898 C2.88855612,62.494898 1.02040816,60.6291922 1.02040816,58.3492101 L1.02040816,5.64058581 C1.02040816,3.36060371 2.88855612,1.49489796 5.17152272,1.49489796 L64.8683176,1.49489796 C67.1522602,1.49489796 69.0204082,3.36060371 69.0204082,5.64058581 L69.0204082,58.3492101 C69.0204082,60.6291922 67.1522602,62.494898 64.8683176,62.494898 L56.532903,62.494898 L24.668975,62.494898 Z"/>
    <mask id="dashboard-b" fill="#fff">
      <use xlink:href="#dashboard-a"/>
    </mask>
    <polygon fill="#00E8D4" points="15.02 48.495 25.02 48.495 25.02 32.495 15.02 32.495" mask="url(#dashboard-b)"/>
    <polygon fill="#00E8D4" points="30.02 49.495 40.02 49.495 40.02 24.495 30.02 24.495" mask="url(#dashboard-b)"/>
    <polygon fill="#00E8D4" points="45.02 49.495 55.02 49.495 55.02 18.495 45.02 18.495" mask="url(#dashboard-b)"/>
    <path stroke="#00E8D4" stroke-linecap="round" stroke-width="2.279" d="M36.0204082,80.494898 C37.4338691,80.494898 38.4944495,80.494898 41.6742519,75.6802966 C44.8550238,70.8676165 48.6911452,62.6831785 53.6382585,62.6831785 C60.3526827,62.6831785 62.4612407,71.5534955 69.5566595,71.5534955 C73.4499785,71.5534955 76.1208186,66.4862524 78.2400406,62.6351477 C80.1954252,59.0847154 80.6307091,58.1702102 83.0204082,56.494898" mask="url(#dashboard-b)"/>
  </g>
</svg>
