<svg xmlns="http://www.w3.org/2000/svg" width="96" height="96" viewBox="0 0 96 96">
  <g fill="none" fill-rule="evenodd" transform="translate(5.735 2)">
    <g transform="translate(.265)">
      <path stroke="#00E8D4" stroke-linecap="round" stroke-linejoin="round" stroke-width="2.25" d="M64.7762229 46.4946237C64.7762229 59.0603411 54.600086 69.2473118 42.0468111 69.2473118 29.4944913 69.2473118 19.3173994 59.0603411 19.3173994 46.4946237 19.3173994 33.9289062 29.4944913 23.7419355 42.0468111 23.7419355 54.600086 23.7419355 64.7762229 33.9289062 64.7762229 46.4946237zM42.5409288 23.7419355L42.5409288 10.8817204M42.4845994 82.1075269L42.5972582 69.2473118M61.811517 34.6236559L73.6703406 27.6989247M22.2821053 34.6236559L10.4232817 27.6989247M9.43504644 64.3010753L21.6618957 57.7106451M74.6585759 64.3010753L62.5368319 57.7672982"/>
      <path fill="#00E8D4" d="M46.9879876,4.94623656 C46.9879876,7.67871337 44.7756753,9.89247312 42.0468111,9.89247312 C39.317947,9.89247312 37.1056347,7.67871337 37.1056347,4.94623656 C37.1056347,2.21375974 39.317947,0 42.0468111,0 C44.7756753,0 46.9879876,2.21375974 46.9879876,4.94623656"/>
      <path stroke="#00E8D4" stroke-width="2.25" d="M46.9879876,4.94623656 C46.9879876,7.67871337 44.7756753,9.89247312 42.0468111,9.89247312 C39.317947,9.89247312 37.1056347,7.67871337 37.1056347,4.94623656 C37.1056347,2.21375974 39.317947,0 42.0468111,0 C44.7756753,0 46.9879876,2.21375974 46.9879876,4.94623656 Z"/>
      <path fill="#00E8D4" d="M83.5526935,25.7204301 C83.5526935,28.4529069 81.3394386,30.6666667 78.611517,30.6666667 C75.8817103,30.6666667 73.6703406,28.4529069 73.6703406,25.7204301 C73.6703406,22.9879533 75.8817103,20.7741935 78.611517,20.7741935 C81.3394386,20.7741935 83.5526935,22.9879533 83.5526935,25.7204301"/>
      <path stroke="#00E8D4" stroke-width="2.25" d="M83.5526935,25.7204301 C83.5526935,28.4529069 81.3394386,30.6666667 78.611517,30.6666667 C75.8817103,30.6666667 73.6703406,28.4529069 73.6703406,25.7204301 C73.6703406,22.9879533 75.8817103,20.7741935 78.611517,20.7741935 C81.3394386,20.7741935 83.5526935,22.9879533 83.5526935,25.7204301 Z"/>
      <path fill="#00E8D4" d="M10.4232817,25.7204301 C10.4232817,28.4529069 8.21096941,30.6666667 5.48210526,30.6666667 C2.75324111,30.6666667 0.540928793,28.4529069 0.540928793,25.7204301 C0.540928793,22.9879533 2.75324111,20.7741935 5.48210526,20.7741935 C8.21096941,20.7741935 10.4232817,22.9879533 10.4232817,25.7204301"/>
      <path stroke="#00E8D4" stroke-width="2.25" d="M10.4232817,25.7204301 C10.4232817,28.4529069 8.21096941,30.6666667 5.48210526,30.6666667 C2.75324111,30.6666667 0.540928793,28.4529069 0.540928793,25.7204301 C0.540928793,22.9879533 2.75324111,20.7741935 5.48210526,20.7741935 C8.21096941,20.7741935 10.4232817,22.9879533 10.4232817,25.7204301 Z"/>
      <path fill="#00E8D4" d="M83.5526935,67.2688172 C83.5526935,70.001294 81.3394386,72.2150538 78.611517,72.2150538 C75.8817103,72.2150538 73.6703406,70.001294 73.6703406,67.2688172 C73.6703406,64.5363404 75.8817103,62.3225806 78.611517,62.3225806 C81.3394386,62.3225806 83.5526935,64.5363404 83.5526935,67.2688172"/>
      <path stroke="#00E8D4" stroke-width="2.25" d="M83.5526935,67.2688172 C83.5526935,70.001294 81.3394386,72.2150538 78.611517,72.2150538 C75.8817103,72.2150538 73.6703406,70.001294 73.6703406,67.2688172 C73.6703406,64.5363404 75.8817103,62.3225806 78.611517,62.3225806 C81.3394386,62.3225806 83.5526935,64.5363404 83.5526935,67.2688172 Z"/>
      <path fill="#00E8D4" d="M10.4232817,67.2688172 C10.4232817,70.001294 8.21096941,72.2150538 5.48210526,72.2150538 C2.75324111,72.2150538 0.540928793,70.001294 0.540928793,67.2688172 C0.540928793,64.5363404 2.75324111,62.3225806 5.48210526,62.3225806 C8.21096941,62.3225806 10.4232817,64.5363404 10.4232817,67.2688172"/>
      <path stroke="#00E8D4" stroke-width="2.25" d="M10.4232817,67.2688172 C10.4232817,70.001294 8.21096941,72.2150538 5.48210526,72.2150538 C2.75324111,72.2150538 0.540928793,70.001294 0.540928793,67.2688172 C0.540928793,64.5363404 2.75324111,62.3225806 5.48210526,62.3225806 C8.21096941,62.3225806 10.4232817,64.5363404 10.4232817,67.2688172 Z"/>
      <path fill="#00E8D4" d="M46.9879876,87.0537634 C46.9879876,89.7862403 44.7756753,92 42.0468111,92 C39.317947,92 37.1056347,89.7862403 37.1056347,87.0537634 C37.1056347,84.3212866 39.317947,82.1075269 42.0468111,82.1075269 C44.7756753,82.1075269 46.9879876,84.3212866 46.9879876,87.0537634"/>
      <path stroke="#00E8D4" stroke-width="2.25" d="M46.9879876,87.0537634 C46.9879876,89.7862403 44.7756753,92 42.0468111,92 C39.317947,92 37.1056347,89.7862403 37.1056347,87.0537634 C37.1056347,84.3212866 39.317947,82.1075269 42.0468111,82.1075269 C44.7756753,82.1075269 46.9879876,84.3212866 46.9879876,87.0537634 Z"/>
      <path stroke="#00E8D4" stroke-linecap="round" stroke-linejoin="round" stroke-width="2.25" d="M74.6585759 21.7634409L46.9879876 5.93548387M79.1056347 62.3225806L79.1056347 30.6666667M46.9879876 85.0752688L73.6703406 69.2473118"/>
      <g transform="translate(9.435 69.247)">
        <path fill="#00E8D4" d="M0.581774118,0.36832587 L27.9461741,15.7465827"/>
        <path stroke="#00E8D4" stroke-linecap="round" stroke-linejoin="round" stroke-width="2.25" d="M0.581774118,0.36832587 L27.9461741,15.7465827"/>
      </g>
      <polyline stroke="#00E8D4" stroke-linecap="round" stroke-linejoin="round" stroke-width="2.25" points="5.976 30.667 5.976 31.41 5.976 62.323"/>
      <path stroke="#00E8D4" stroke-linecap="round" stroke-linejoin="round" stroke-width="2.25" d="M37.1056347,5.93548387 L9.43504644,21.7634409"/>
    </g>
    <path fill="##00E8D4" d="M44.6332319 33.2571523C43.9847316 33.0905623 43.3066043 33 42.6065311 33 38.0000937 33 34.2649071 36.8058533 34.2649071 41.500559 34.2649071 46.1941467 38.0000937 50 42.6065311 50 43.9210886 50 45.16103 49.685827 46.2649071 49.1346268 41.9909496 49.0261756 38.5564214 45.4696481 38.5564214 41.0879974 38.5564214 37.281026 41.1504229 34.1001644 44.6332319 33.2571523zM47.6701076 65.0042585C45.9474415 65.0042585 40.9092332 63.7096605 39.5501934 59.4966748 38.485058 56.1914596 39.6799833 50.2238945 44.9477374 50.2238945L48.1442162 50.2238945C47.4448524 50.0775872 46.7208178 50 45.9796209 50L39.1554605 50C33.1411462 50 28.2649071 55.0376269 28.2649071 61.2523626L28.2649071 63.4115039C32.0524127 66.8863026 37.0369888 69 42.5010367 69 46.3539736 69 54.0673557 65.0042585 57.2649071 62.2499125 55.6098176 62.7431455 51.4393782 65.0042585 47.6701076 65.0042585"/>
    <path stroke="#00E8D4" stroke-linecap="round" stroke-width="2" d="M46.2247451 50L39.3061566 50C33.2086203 50 28.2649071 55.037333 28.2649071 61.2517062L28.2649071 63.4107216C32.1059091 66.8853176 37.158371 69 42.6980267 69 48.276832 69 53.3608309 66.8576095 57.2116203 63.3386805L57.2649071 61.2517062C57.2649071 55.037333 52.3222814 50 46.2247451 50zM51.2649071 41.5C51.2649071 46.193279 47.4599216 50 42.7649071 50 38.0710108 50 34.2649071 46.193279 34.2649071 41.5 34.2649071 36.806721 38.0710108 33 42.7649071 33 47.4599216 33 51.2649071 36.806721 51.2649071 41.5z"/>
  </g>
</svg>
