<svg xmlns="http://www.w3.org/2000/svg" width="96" height="96" viewBox="0 0 96 96">
  <g fill="none" fill-rule="evenodd" transform="translate(5)">
    <path fill="#00E8D4" d="M42.5915381,87.0619052 C9.72390928,80.0430186 7.68811546,42.387266 8.09784742,28.4642969 C23.5132701,24.9825649 35.8319505,16.3821526 42.5915381,10.7607093 C49.3501361,16.3811629 61.6688165,24.9815753 77.0852289,28.4633072 C77.4959505,42.3842969 75.4611464,80.0430186 42.5915381,87.0619052 M42.6697237,0.123513402 L42.5133526,0.123513402 C42.5133526,0.123513402 24.7939299,18.8454928 0.680115464,21.721534 C0.309971134,21.7650804 -6.79897732,86.1444619 42.5915381,95.1308536 C91.9820536,86.1444619 84.8731052,21.7650804 84.5029608,21.721534 C60.3891464,18.8454928 42.6697237,0.123513402 42.6697237,0.123513402 Z"/>
    <path fill="#00E8D4" d="M35.8024577,63.4620371 L35.8024577,47.7704907 C35.8024577,45.5921814 37.583901,43.8117278 39.7612206,43.8117278 L32.8333856,43.8117278 C30.656066,43.8117278 28.8746227,45.5921814 28.8746227,47.7704907 L28.8746227,63.4620371 C28.8746227,65.6393567 30.656066,67.4208 32.8333856,67.4208 L39.7612206,67.4208 C37.583901,67.4208 35.8024577,65.6393567 35.8024577,63.4620371"/>
    <path stroke="#00E8D4" stroke-linecap="round" stroke-linejoin="round" stroke-width="2.25" d="M33.4635216 43.7262186L33.4635216 36.7142598C33.4635216 31.8093526 37.5964701 27.8327753 42.5914392 27.8327753 47.5873979 27.8327753 51.7193567 31.8093526 51.7193567 36.7142598L51.7193567 43.7262186M42.5915381 59.7361485L42.5915381 56.057468"/>
    <path fill="#00E8D4" d="M44.6699876,53.9710021 C44.6699876,55.0982598 43.7396784,56.012734 42.5916371,56.012734 C41.4435959,56.012734 40.5132866,55.0982598 40.5132866,53.9710021 C40.5132866,52.8437443 41.4435959,51.9302598 42.5916371,51.9302598 C43.7396784,51.9302598 44.6699876,52.8437443 44.6699876,53.9710021"/>
    <path stroke="#00E8D4" stroke-width="2.25" d="M44.6699876,53.9710021 C44.6699876,55.0982598 43.7396784,56.012734 42.5916371,56.012734 C41.4435959,56.012734 40.5132866,55.0982598 40.5132866,53.9710021 C40.5132866,52.8437443 41.4435959,51.9302598 42.5916371,51.9302598 C43.7396784,51.9302598 44.6699876,52.8437443 44.6699876,53.9710021 Z"/>
    <path stroke="#00E8D4" stroke-linecap="round" stroke-linejoin="round" stroke-width="2.25" d="M52.3502845,67.4208 L32.8335835,67.4208 C30.6562639,67.4208 28.8748206,65.6393567 28.8748206,63.4620371 L28.8748206,47.7704907 C28.8748206,45.5921814 30.6562639,43.8117278 32.8335835,43.8117278 L52.3502845,43.8117278 C54.5276041,43.8117278 56.3090474,45.5921814 56.3090474,47.7704907 L56.3090474,63.4620371 C56.3090474,65.6393567 54.5276041,67.4208 52.3502845,67.4208 Z"/>
    <path stroke="#00E8D4" stroke-linecap="round" stroke-linejoin="round" stroke-width="2.25" d="M42.5142433,0.12371134 C42.5142433,0.12371134 24.7938309,18.8456907 0.680016495,21.7207423 C0.309872165,21.7652784 -6.7980866,86.1446598 42.5914392,95.1310515 C91.9819546,86.1446598 84.8730062,21.7652784 84.5028619,21.7207423 C60.3890474,18.8456907 42.6696247,0.12371134 42.6696247,0.12371134 L42.5142433,0.12371134 Z"/>
  </g>
</svg>
