<svg xmlns="http://www.w3.org/2000/svg" xmlns:xlink="http://www.w3.org/1999/xlink" width="104" height="96" viewBox="0 0 104 96">
  <defs>
    <polygon id="cheaper-a" points="0 95.774 103.154 95.774 103.154 0 0 0"/>
  </defs>
  <g fill="none" fill-rule="evenodd">
    <path fill="#00E8D4" d="M38.5667 61.4921143L52.9067 61.4921143 52.9067 54.7711347C48.2547 58.6620735 42.2277 61.0179918 35.6457 61.0179918 20.9627 61.0179918 9.0157 49.3148082 9.0157 34.9304816 9.0157 20.5461551 20.9627 8.84395102 35.6457 8.84395102 47.3027 8.84395102 57.2267 16.2212571 60.8267 26.4579918L69.0747 26.4579918C65.2357 11.8816653 51.7247 1.11399184 35.6457 1.11399184 16.5807 1.11399184 1.1257 16.2535837 1.1257 34.9304816 1.1257 53.6073796 16.5807 68.7469714 35.6457 68.7469714 37.4057 68.7469714 39.1337 68.6157061 40.8237 68.3678694L37.1717 64.7904C35.9287 63.5737469 36.8097 61.4921143 38.5667 61.4921143M100.0521 61.4921143L95.9811 61.4921143 64.2751 92.3071347 66.5201 93.5404408C68.0611 95.0490122 70.5591 95.0490122 72.0991 93.5404408L101.4481 64.7904C102.6901 63.5737469 101.8101 61.4921143 100.0521 61.4921143"/>
    <mask id="cheaper-b" fill="#fff">
      <use xlink:href="#cheaper-a"/>
    </mask>
    <polygon fill="#00E8D4" points="79.537 62.467 85.455 62.467 85.455 26.719 79.537 26.719" mask="url(#cheaper-b)"/>
    <path stroke="#00E8D4" stroke-linecap="round" stroke-width="2.25" d="M13.9398 21.2380408C18.4508 14.2153469 26.4338 9.53877551 35.5118 9.53877551M10.0443 34.4864327C10.0443 32.3440653 10.3213 30.2643918 10.8423 28.2797388 11.0133 27.6283102 11.2103 26.9866776 11.4333 26.3558204M42.6976 26.4439837C34.8586 21.2051265 28.3266 22.5148408 28.3266 27.753698 28.3266 30.3731265 30.9396 31.6828408 33.5516 32.9925551L37.4716 34.895902C40.0856 36.2056163 42.6976 37.5153306 42.6976 40.1347592 42.6976 45.3726367 36.1656 46.682351 28.3266 41.4444735M36.1653 19.1803102L36.1653 22.9488M36.1653 45.3729306L36.1653 49.792849M68.9251 26.4583837L54.8421 26.4583837C53.7521 26.4583837 52.8691 27.3233633 52.8691 28.3911184L52.8691 61.4925061 38.5671 61.4925061C36.8101 61.4925061 35.9291 63.5741388 37.1721 64.7907918L66.5201 93.5398531C68.0611 95.0494041 70.5591 95.0494041 72.0991 93.5398531L101.4471 64.7907918C102.6901 63.5741388 101.8101 61.4925061 100.0521 61.4925061L85.7501 61.4925061 85.7501 28.3911184C85.7501 27.3233633 84.8661 26.4583837 83.7781 26.4583837L80.9251 26.4583837" mask="url(#cheaper-b)"/>
    <path stroke="#00E8D4" stroke-linecap="round" stroke-linejoin="round" stroke-width="2.25" d="M82.2444 5.02021224L82.2444 14.6731102M67.9251 1.1018449L67.9251 7.95898776M75.0853 14.3454367L75.0853 25.9398857M75.0853 7.26063673L75.0853 9.19337143" mask="url(#cheaper-b)"/>
    <path stroke="#00E8D4" stroke-linecap="round" stroke-width="2.25" d="M40.8235,68.3578776 C39.1355,68.6066939 37.4055,68.7350204 35.6455,68.7350204 C16.5805,68.7350204 1.1255,53.5954286 1.1255,34.9185306 C1.1255,16.2426122 16.5805,1.10204082 35.6455,1.10204082 C51.7245,1.10204082 65.2355,11.8697143 69.0745,26.4460408" mask="url(#cheaper-b)"/>
  </g>
</svg>
