<svg xmlns="http://www.w3.org/2000/svg" width="96" height="96" viewBox="0 0 96 96">
  <g fill="none" fill-rule="evenodd" transform="translate(8 2)">
    <path fill="#00E8D4" d="M10.6227359,72.9470129 L10.6227359,4.05202211 C10.6227359,1.8238442 12.4862474,0 14.7628866,0 L4.90303731,0 C2.62639811,0 0.762886598,1.8238442 0.762886598,4.05202211 L0.762886598,72.9470129 C0.762886598,75.1761558 2.62639811,77 4.90303731,77 L14.7628866,77 C12.4862474,77 10.6227359,75.1761558 10.6227359,72.9470129"/>
    <path fill="#00E8D4" d="M1.7628866,16 L1.7628866,4.0489363 C1.7628866,1.82245525 3.58673079,0 5.81490871,0 L74.7098995,0 C76.9380774,0 78.7628866,1.82245525 78.7628866,4.0489363 L78.7628866,16"/>
    <path stroke="#00E8D4" stroke-linecap="round" stroke-width="2.25" d="M24.8504381 77L5.81490871 77C3.58673079 77 1.7628866 75.1751908 1.7628866 72.9470129L1.7628866 4.05202211C1.7628866 1.8238442 3.58673079 0 5.81490871 0L74.7098995 0C76.9390424 0 78.7628866 1.8238442 78.7628866 4.05202211L78.7628866 72.9470129C78.7628866 75.1751908 76.9390424 77 74.7098995 77L55.9571142 77M2.7628866 16.5L77.7628866 16.5"/>
    <path fill="#4E19EB" d="M10 7.5C10 8.32848837 9.32723773 9 8.4985563 9 7.66987488 9 7 8.32848837 7 7.5 7 6.67151163 7.66987488 6 8.4985563 6 9.32723773 6 10 6.67151163 10 7.5zM17 7.5C17 8.32848837 16.3301251 9 15.4985563 9 14.6698749 9 14 8.32848837 14 7.5 14 6.67151163 14.6698749 6 15.4985563 6 16.3301251 6 17 6.67151163 17 7.5zM24 7.5C24 8.32848837 23.3301251 9 22.4985563 9 21.6698749 9 21 8.32848837 21 7.5 21 6.67151163 21.6698749 6 22.4985563 6 23.3301251 6 24 6.67151163 24 7.5z"/>
    <path stroke="#00E8D4" stroke-linecap="round" stroke-width="2.25" d="M71.7628866 7.5L31.7628866 7.5M10.7628866 33.5L32.7628866 33.5M39.7628866 33.5L48.7628866 33.5M55.7628866 33.5L68.7628866 33.5M10.7628866 41.5L23.7628866 41.5M31.7628866 41.5L42.7628866 41.5M49.7628866 41.5L60.7628866 41.5M31.7628866 49.5L38.7628866 49.5M10.7628866 49.5L23.7628866 49.5M10.7628866 57.5L23.7628866 57.5M10.7628866 25.5L26.7628866 25.5M32.7628866 25.5L45.7628866 25.5"/>
    <path fill="#00E8D4" d="M40.2628866,83.7000984 C36.8387885,83.7000984 34.0624928,80.924596 34.0624928,77.5004921 C34.0624928,74.0763882 36.8387885,71.2999016 40.2628866,71.2999016 C43.6869847,71.2999016 46.4632804,74.0763882 46.4632804,77.5004921 C46.4632804,80.924596 43.6869847,83.7000984 40.2628866,83.7000984 L40.2628866,83.7000984 Z M55.6270253,79.4817284 C55.7077545,78.8311585 55.7628866,78.1727149 55.7628866,77.5004921 C55.7628866,76.8282694 55.7077545,76.1698257 55.6270253,75.5182716 L52.3013775,74.521256 C52.1517331,73.8943074 51.9656623,73.2821221 51.7283973,72.6955266 L53.8450766,69.8954186 C53.2140108,68.7291171 52.4342852,67.6622218 51.5462644,66.7016224 L48.2865782,67.881703 C47.8100792,67.4683303 47.2991226,67.0972791 46.764538,66.7616598 L46.8610192,63.2322443 C45.6983223,62.673207 44.4627723,62.2509763 43.1632296,62 L41.199148,64.9201829 C40.8890299,64.8965616 39.6357588,64.8965616 39.3256407,64.9201829 L37.3625436,62 C36.0620164,62.2509763 34.8274509,62.673207 33.664754,63.2322443 L33.7612352,66.7616598 C33.2266506,67.0972791 32.715694,67.4683303 32.239195,67.881703 L28.9785243,66.7016224 C28.0905035,67.6622218 27.3117624,68.7291171 26.6806966,69.8954186 L28.7973759,72.6945423 C28.5591264,73.2821221 28.3730556,73.892339 28.2243957,74.5192876 L24.8987479,75.5182716 C24.8180187,76.1698257 24.7628866,76.8282694 24.7628866,77.5004921 C24.7628866,78.1727149 24.8180187,78.8311585 24.8987479,79.4817284 L28.2243957,80.4807124 C28.3730556,81.1066768 28.5591264,81.7178779 28.7973759,82.3054577 L26.6806966,85.1055656 C27.3117624,86.2698987 28.0905035,87.336794 28.9785243,88.2993618 L32.239195,87.118297 C32.715694,87.5316697 33.2266506,87.9027209 33.7612352,88.2383402 L33.664754,91.7677557 C34.8274509,92.3277772 36.0620164,92.7490237 37.3625436,93 L39.3256407,90.0798171 C39.6357588,90.1044226 40.8890299,90.1044226 41.199148,90.0798171 L43.1632296,93 C44.4627723,92.7490237 45.6983223,92.3277772 46.8610192,91.7677557 L46.764538,88.2383402 C47.2991226,87.9027209 47.8100792,87.5316697 48.2865782,87.118297 L51.5462644,88.2993618 C52.4342852,87.336794 53.2140108,86.2698987 53.8450766,85.1055656 L51.7283973,82.3044734 C51.9656623,81.7178779 52.1517331,81.1066768 52.3013775,80.4797282 L55.6270253,79.4817284 Z"/>
    <path stroke="#00E8D4" stroke-width="2.25" d="M40.2628866,83.7000984 C36.8387885,83.7000984 34.0624928,80.924596 34.0624928,77.5004921 C34.0624928,74.0763882 36.8387885,71.2999016 40.2628866,71.2999016 C43.6869847,71.2999016 46.4632804,74.0763882 46.4632804,77.5004921 C46.4632804,80.924596 43.6869847,83.7000984 40.2628866,83.7000984 Z M55.6270253,79.4817284 C55.7077545,78.8311585 55.7628866,78.1727149 55.7628866,77.5004921 C55.7628866,76.8282694 55.7077545,76.1698257 55.6270253,75.5182716 L52.3013775,74.521256 C52.1517331,73.8943074 51.9656623,73.2821221 51.7283973,72.6955266 L53.8450766,69.8954186 C53.2140108,68.7291171 52.4342852,67.6622218 51.5462644,66.7016224 L48.2865782,67.881703 C47.8100792,67.4683303 47.2991226,67.0972791 46.764538,66.7616598 L46.8610192,63.2322443 C45.6983223,62.673207 44.4627723,62.2509763 43.1632296,62 L41.199148,64.9201829 C40.8890299,64.8965616 39.6357588,64.8965616 39.3256407,64.9201829 L37.3625436,62 C36.0620164,62.2509763 34.8274509,62.673207 33.664754,63.2322443 L33.7612352,66.7616598 C33.2266506,67.0972791 32.715694,67.4683303 32.239195,67.881703 L28.9785243,66.7016224 C28.0905035,67.6622218 27.3117624,68.7291171 26.6806966,69.8954186 L28.7973759,72.6945423 C28.5591264,73.2821221 28.3730556,73.892339 28.2243957,74.5192876 L24.8987479,75.5182716 C24.8180187,76.1698257 24.7628866,76.8282694 24.7628866,77.5004921 C24.7628866,78.1727149 24.8180187,78.8311585 24.8987479,79.4817284 L28.2243957,80.4807124 C28.3730556,81.1066768 28.5591264,81.7178779 28.7973759,82.3054577 L26.6806966,85.1055656 C27.3117624,86.2698987 28.0905035,87.336794 28.9785243,88.2993618 L32.239195,87.118297 C32.715694,87.5316697 33.2266506,87.9027209 33.7612352,88.2383402 L33.664754,91.7677557 C34.8274509,92.3277772 36.0620164,92.7490237 37.3625436,93 L39.3256407,90.0798171 C39.6357588,90.1044226 40.8890299,90.1044226 41.199148,90.0798171 L43.1632296,93 C44.4627723,92.7490237 45.6983223,92.3277772 46.8610192,91.7677557 L46.764538,88.2383402 C47.2991226,87.9027209 47.8100792,87.5316697 48.2865782,87.118297 L51.5462644,88.2993618 C52.4342852,87.336794 53.2140108,86.2698987 53.8450766,85.1055656 L51.7283973,82.3044734 C51.9656623,81.7178779 52.1517331,81.1066768 52.3013775,80.4797282 L55.6270253,79.4817284 Z"/>
  </g>
</svg>
