<?xml version="1.0"?>
<svg xmlns="http://www.w3.org/2000/svg" viewBox="0 0 64 64" width="512" height="512"><g id="Outline"><path d="M59,35H58V27a9.011,9.011,0,0,0-6.16-8.534l2.08-4.873a1,1,0,0,0-.527-1.313L29.482,2.08a1,1,0,0,0-1.312.528L26.179,7.283,11.771,6.253a.983.983,0,0,0-.726.241,1,1,0,0,0-.342.685L9.93,18H7a5.006,5.006,0,0,0-5,5V57a5.006,5.006,0,0,0,5,5H49a9.01,9.01,0,0,0,9-9V45h1a3,3,0,0,0,3-3V38A3,3,0,0,0,59,35ZM29.618,4.312l22.069,9.416-1.841,4.315C49.567,18.017,49.286,18,49,18H23.773l3.9-9.152a.931.931,0,0,0,.064-.126ZM12.626,8.318l12.715.907L21.6,18H11.934ZM56,53a6.956,6.956,0,0,1-.3,2H53a1,1,0,0,0,0,2h1.736A6.993,6.993,0,0,1,49,60H7a3,3,0,0,1-3-3H7a1,1,0,0,0,0-2H4V41H42a1,1,0,0,0,0-2H4V25H7a1,1,0,0,0,0-2H4a3,3,0,0,1,3-3H49a6.993,6.993,0,0,1,5.736,3H53a1,1,0,0,0,0,2h2.7a6.956,6.956,0,0,1,.3,2v8H51a3,3,0,0,0-3,3v1H46a1,1,0,0,0,0,2h2v1a3,3,0,0,0,3,3h5Zm4-11a1,1,0,0,1-1,1H51a1,1,0,0,1-1-1V38a1,1,0,0,1,1-1h8a1,1,0,0,1,1,1Z"/><circle cx="53" cy="40" r="2"/><path d="M14,55H11a1,1,0,0,0,0,2h3a1,1,0,0,0,0-2Z"/><path d="M21,55H18a1,1,0,0,0,0,2h3a1,1,0,0,0,0-2Z"/><path d="M28,55H25a1,1,0,0,0,0,2h3a1,1,0,0,0,0-2Z"/><path d="M35,55H32a1,1,0,0,0,0,2h3a1,1,0,0,0,0-2Z"/><path d="M42,55H39a1,1,0,0,0,0,2h3a1,1,0,0,0,0-2Z"/><path d="M49,55H46a1,1,0,0,0,0,2h3a1,1,0,0,0,0-2Z"/><path d="M14,23H11a1,1,0,0,0,0,2h3a1,1,0,0,0,0-2Z"/><path d="M21,23H18a1,1,0,0,0,0,2h3a1,1,0,0,0,0-2Z"/><path d="M28,23H25a1,1,0,0,0,0,2h3a1,1,0,0,0,0-2Z"/><path d="M35,23H32a1,1,0,0,0,0,2h3a1,1,0,0,0,0-2Z"/><path d="M42,23H39a1,1,0,0,0,0,2h3a1,1,0,0,0,0-2Z"/><path d="M46,25h3a1,1,0,0,0,0-2H46a1,1,0,0,0,0,2Z"/></g></svg>
