<svg xmlns="http://www.w3.org/2000/svg" width="96" height="96" viewBox="0 0 96 96">
  <g fill="none" fill-rule="evenodd">
    <g transform="translate(31 32)">
      <path fill="#00E8D4" d="M16.9208205,28.2861412 C10.1462779,28.2861412 4.63491142,22.7747748 4.63491142,15.9997679 C4.63491142,9.22522523 10.1462779,3.71385879 16.9208205,3.71385879 C23.6958274,3.71385879 29.2071938,9.22522523 29.2071938,15.9997679 C29.2071938,22.7747748 23.6958274,28.2861412 16.9208205,28.2861412 M0.921052632,15.9997679 C0.921052632,24.8364306 8.084622,32 16.9208205,32 C25.7574833,32 32.9210526,24.8364306 32.9210526,15.9997679 C32.9210526,7.16356937 25.7574833,0 16.9208205,0 C8.084622,0 0.921052632,7.16356937 0.921052632,15.9997679 Z"/>
      <path stroke="#00E8D4" stroke-linecap="round" stroke-linejoin="round" stroke-width="2.25" d="M21 10.9346919C16.6364121 7.89577778 13 8.65509778 13 11.6945566 13 13.214286 14.454885 13.973606 15.9092364 14.7334707L18.0907636 15.8381343C19.545115 16.5974543 21 17.357319 21 18.8770484 21 21.9159625 17.3635879 22.6758272 13 19.6369131M17.4210526 7L17.4210526 9M17.4210526 22L17.4210526 24"/>
      <path stroke="#00E8D4" stroke-linecap="round" stroke-linejoin="round" stroke-width="2.25" d="M32.9210526,15.9997679 C32.9210526,24.8364306 25.7574833,32 16.9212847,32 C8.084622,32 0.921052632,24.8364306 0.921052632,15.9997679 C0.921052632,7.16356937 8.084622,0 16.9212847,0 C25.7574833,0 32.9210526,7.16356937 32.9210526,15.9997679 Z"/>
    </g>
    <g transform="rotate(90 36.75 37.25)">
      <polygon fill="#00E8D4" points="22.68 55 26.68 55 26.68 34.5 22.68 34.5"/>
      <path fill="#00E8D4" d="M30.5400391,54 L15.07,69.8515625 L15.8692697,71.3862006 C16.6856015,72.2045998 18.0088958,72.2045998 18.8246978,71.3862006 L34.3720821,55.7893183 C35.0300211,55.1292846 34.5638485,54 33.6325629,54 L30.5400391,54 Z"/>
      <path stroke="#00E8D4" stroke-linecap="round" stroke-width="2.25" d="M11.5019531,35 L10.441975,35 C9.85898655,35 9.38671242,35.4691767 9.38671242,36.0483415 L9.38671242,54.0029834 L1.73726216,54.0029834 C0.79752757,54.0029834 0.326323145,55.1320892 0.991143917,55.7920184 L16.6879742,71.3858993 C17.5121808,72.2047002 18.8482405,72.2047002 19.6719123,71.3858993 L35.3687426,55.7920184 C36.0335633,55.1320892 35.5628938,54.0029834 34.6226243,54.0029834 L26.973174,54.0029834 L26.973174,36.0483415 C26.973174,35.4691767 26.5003651,35 25.9184463,35 L24.3925142,35 L23.4912109,35"/>
      <path stroke="#00E8D4" stroke-linecap="round" stroke-linejoin="round" stroke-width="2.25" d="M25 5L25 10M15.07 12L15.07 28.5M19.68 25.5L19.68 31.5M19.68 20.5L19.68 22M10.25 7.5L10.25 12.5M10.25.5L10.25 2"/>
    </g>
    <g transform="matrix(0 1 1 0 22 59)">
      <polygon fill="#00E8D4" points="22.68 55 26.68 55 26.68 34.5 22.68 34.5"/>
      <path fill="#00E8D4" d="M30.5400391,54 L15.07,69.8515625 L15.8692697,71.3862006 C16.6856015,72.2045998 18.0088958,72.2045998 18.8246978,71.3862006 L34.3720821,55.7893183 C35.0300211,55.1292846 34.5638485,54 33.6325629,54 L30.5400391,54 Z"/>
      <path stroke="#00E8D4" stroke-linecap="round" stroke-width="2.25" d="M11.5019531,35 L10.441975,35 C9.85898655,35 9.38671242,35.4691767 9.38671242,36.0483415 L9.38671242,54.0029834 L1.73726216,54.0029834 C0.79752757,54.0029834 0.326323145,55.1320892 0.991143917,55.7920184 L16.6879742,71.3858993 C17.5121808,72.2047002 18.8482405,72.2047002 19.6719123,71.3858993 L35.3687426,55.7920184 C36.0335633,55.1320892 35.5628938,54.0029834 34.6226243,54.0029834 L26.973174,54.0029834 L26.973174,36.0483415 C26.973174,35.4691767 26.5003651,35 25.9184463,35 L24.3925142,35 L23.4912109,35"/>
      <path stroke="#00E8D4" stroke-linecap="round" stroke-linejoin="round" stroke-width="2.25" d="M25 5L25 10M15.07 12L15.07 28.5M19.68 25.5L19.68 31.5M19.68 20.5L19.68 22M10.25 7.5L10.25 12.5M10.25.5L10.25 2"/>
    </g>
  </g>
</svg>
